{
  "accessors": [
    {
      "bufferView": 2,
      "componentType": 5126,
      "count": 13226,
      "max": [
        9.783037185668945,
        15.00194263458252,
        5.023885726928711
      ],
      "min": [
        -0.06276416778564453,
        -0.09880304336547852,
        2.384185791015625e-07
      ],
      "type": "VEC3"
    },
    {
      "bufferView": 2,
      "byteOffset": 158712,
      "componentType": 5126,
      "count": 13226,
      "max": [
        1.0,
        1.0,
        1.0
      ],
      "min": [
        -1.0,
        -1.0,
        -1.0
      ],
      "type": "VEC3"
    },
    {
      "bufferView": 1,
      "componentType": 5126,
      "count": 13226,
      "max": [
        0.9980826377868652,
        0.9848243594169617
      ],
      "min": [
        0.0019172744359821081,
        0.0019172744359821081
      ],
      "type": "VEC2"
    },
    {
      "bufferView": 1,
      "byteOffset": 105808,
      "componentType": 5126,
      "count": 13226,
      "max": [
        0.9999000430107117,
        0.9999000430107117
      ],
      "min": [
        0.0,
        0.0
      ],
      "type": "VEC2"
    },
    {
      "bufferView": 0,
      "componentType": 5125,
      "count": 25368,
      "type": "SCALAR"
    },
    {
      "bufferView": 2,
      "byteOffset": 317424,
      "componentType": 5126,
      "count": 274,
      "max": [
        9.800000190734863,
        15.0,
        5.0
      ],
      "min": [
        0.0,
        -0.09952238202095032,
        -1.4901161193847656e-08
      ],
      "type": "VEC3"
    },
    {
      "bufferView": 2,
      "byteOffset": 320712,
      "componentType": 5126,
      "count": 274,
      "max": [
        1.0,
        1.0,
        1.0
      ],
      "min": [
        -1.0,
        -1.0,
        -1.0
      ],
      "type": "VEC3"
    },
    {
      "bufferView": 1,
      "byteOffset": 211616,
      "componentType": 5126,
      "count": 274,
      "max": [
        0.9996464252471924,
        0.9873824119567871
      ],
      "min": [
        0.0003535854339133948,
        0.0003535854339133948
      ],
      "type": "VEC2"
    },
    {
      "bufferView": 1,
      "byteOffset": 213808,
      "componentType": 5126,
      "count": 274,
      "max": [
        0.657215416431427,
        1.006553053855896
      ],
      "min": [
        0.0,
        0.0
      ],
      "type": "VEC2"
    },
    {
      "bufferView": 0,
      "byteOffset": 101472,
      "componentType": 5125,
      "count": 426,
      "type": "SCALAR"
    }
  ],
  "asset": {
    "extras": {
      "author": "Maxim Mavrichev (https://sketchfab.com/mvrc.art)",
      "license": "CC-BY-4.0 (http://creativecommons.org/licenses/by/4.0/)",
      "source": "https://sketchfab.com/3d-models/abandoned-vr-gallery-a6488bfc669a428aa26afbb96b9428d7",
      "title": "Abandoned VR Gallery"
    },
    "generator": "Sketchfab-13.74.0",
    "version": "2.0"
  },
  "bufferViews": [
    {
      "buffer": 0,
      "byteLength": 103176,
      "name": "floatBufferViews",
      "target": 34963
    },
    {
      "buffer": 0,
      "byteLength": 216000,
      "byteOffset": 103176,
      "byteStride": 8,
      "name": "floatBufferViews",
      "target": 34962
    },
    {
      "buffer": 0,
      "byteLength": 324000,
      "byteOffset": 319176,
      "byteStride": 12,
      "name": "floatBufferViews",
      "target": 34962
    }
  ],
  "buffers": [
    {
      "byteLength": 643176,
      "uri": "scene.bin"
    }
  ],
  "extensionsUsed": [
    "KHR_materials_unlit"
  ],
  "images": [
    {
      "uri": "textures/PropsBaked_baseColor.png"
    },
    {
      "uri": "textures/PropsBaked_emissive.png"
    },
    {
      "uri": "textures/RoomBaked_baseColor.png"
    }
  ],
  "materials": [
    {
      "emissiveFactor": [
        1.0,
        1.0,
        1.0
      ],
      "emissiveTexture": {
        "index": 1
      },
      "extensions": {
        "KHR_materials_unlit": {}
      },
      "name": "PropsBaked",
      "pbrMetallicRoughness": {
        "baseColorTexture": {
          "index": 0
        },
        "metallicFactor": 0.0
      }
    },
    {
      "extensions": {
        "KHR_materials_unlit": {}
      },
      "name": "RoomBaked",
      "pbrMetallicRoughness": {
        "baseColorTexture": {
          "index": 2
        },
        "metallicFactor": 0.0
      }
    }
  ],
  "meshes": [
    {
      "name": "PropsBaked_PropsBaked_0",
      "primitives": [
        {
          "attributes": {
            "NORMAL": 1,
            "POSITION": 0,
            "TEXCOORD_0": 2,
            "TEXCOORD_1": 3
          },
          "indices": 4,
          "material": 0,
          "mode": 4
        }
      ]
    },
    {
      "name": "RoomBaked_RoomBaked_0",
      "primitives": [
        {
          "attributes": {
            "NORMAL": 6,
            "POSITION": 5,
            "TEXCOORD_0": 7,
            "TEXCOORD_1": 8
          },
          "indices": 9,
          "material": 1,
          "mode": 4
        }
      ]
    }
  ],
  "nodes": [
    {
      "children": [
        1
      ],
      "matrix": [
        1.0,
        0.0,
        0.0,
        0.0,
        0.0,
        2.220446049250313e-16,
        -1.0,
        0.0,
        0.0,
        1.0,
        2.220446049250313e-16,
        0.0,
        0.0,
        0.0,
        0.0,
        1.0
      ],
      "name": "Sketchfab_model"
    },
    {
      "children": [
        2
      ],
      "matrix": [
        0.009999999776482582,
        0.0,
        0.0,
        0.0,
        0.0,
        0.0,
        0.009999999776482582,
        0.0,
        0.0,
        -0.009999999776482582,
        0.0,
        0.0,
        0.0,
        0.0,
        0.0,
        1.0
      ],
      "name": "86a471727cc04a0e84560ff23c6f86cd.fbx"
    },
    {
      "children": [
        3,
        5,
        7
      ],
      "name": "RootNode"
    },
    {
      "children": [
        4
      ],
      "matrix": [
        100.0,
        0.0,
        0.0,
        0.0,
        0.0,
        -1.629206793918314e-05,
        -99.99999999999868,
        0.0,
        0.0,
        99.99999999999868,
        -1.629206793918314e-05,
        0.0,
        0.0,
        0.0,
        0.0,
        1.0
      ],
      "name": "PropsBaked"
    },
    {
      "mesh": 0,
      "name": "PropsBaked_PropsBaked_0"
    },
    {
      "children": [
        6
      ],
      "matrix": [
        100.0,
        0.0,
        0.0,
        0.0,
        0.0,
        -1.629206793918314e-05,
        -99.99999999999868,
        0.0,
        0.0,
        99.99999999999868,
        -1.629206793918314e-05,
        0.0,
        0.0,
        0.0,
        0.0,
        1.0
      ],
      "name": "RoomBaked"
    },
    {
      "mesh": 1,
      "name": "RoomBaked_RoomBaked_0"
    },
    {
      "children": [
        8
      ],
      "matrix": [
        45.68331027470075,
        4.371139516265025e-06,
        -88.95524246690243,
        0.0,
        -1.996881585230033e-06,
        99.9999999999999,
        3.8883575716776605e-06,
        0.0,
        88.95524246690253,
        4.018589757267859e-13,
        45.683310274700794,
        0.0,
        746.2667846679688,
        61.940704345703125,
        -42.04848098754883,
        1.0
      ],
      "name": "Camera"
    },
    {
      "name": "Object_8"
    }
  ],
  "samplers": [
    {
      "magFilter": 9729,
      "minFilter": 9987,
      "wrapS": 10497,
      "wrapT": 10497
    }
  ],
  "scene": 0,
  "scenes": [
    {
      "name": "Sketchfab_Scene",
      "nodes": [
        0
      ]
    }
  ],
  "textures": [
    {
      "sampler": 0,
      "source": 0
    },
    {
      "sampler": 0,
      "source": 1
    },
    {
      "sampler": 0,
      "source": 2
    }
  ]
}
